General
Unique ID                                : 143522898336605732978977300724102433719 (0x6BF981380733726C5FC597812D638BB7)
Complete name                            : Tokyo Ska Paradise Orchestra - ¡Dale Dale! ~Dare Dare!~ (feat. Yusuke Chiba) [WEB-DL 1080p AAC 2.0 x264-SEKAI].mkv
Format                                   : Matroska
Format version                           : Version 4
File size                                : 197 MiB
Duration                                 : 2 min 45 s
Overall bit rate                         : 10.0 Mb/s
Frame rate                               : 29.970 FPS
Title                                    : Tokyo Ska Paradise Orchestra - ┬íDale Dale! ~Dare Dare!~ (feat. Yusuke Chiba) [WEB-DL 1080p AAC 2.0 x264-SEKAI]
Encoded date                             : 2026-05-02 08:51:29 UTC
Writing application                      : mkvmerge 98.0 ('Chonks') 64-bit
Writing library                          : libebml v1.4.5 + libmatroska v1.7.1
Website                                  : https://sekai-archivist.blogspot.com/

Video
ID                                       : 1
Format                                   : AVC
Format/Info                              : Advanced Video Codec
Format profile                           : High@L4
Format settings                          : CABAC / 4 Ref Frames
Format settings, CABAC                   : Yes
Format settings, Reference frames        : 4 frames
Format settings, Slice count             : 8 slices per frame
Codec ID                                 : V_MPEG4/ISO/AVC
Duration                                 : 2 min 45 s
Bit rate                                 : 9 748 kb/s
Width                                    : 1 656 pixels
Height                                   : 1 076 pixels
Display aspect ratio                     : 3:2
Frame rate mode                          : Constant
Frame rate                               : 29.970 (30000/1001) FPS
Color space                              : YUV
Chroma subsampling                       : 4:2:0 (Type 2)
Bit depth                                : 8 bits
Scan type                                : Progressive
Bits/(Pixel*Frame)                       : 0.183
Stream size                              : 192 MiB (97%)
Language                                 : Japanese
Default                                  : Yes
Forced                                   : No
Color range                              : Limited
Color primaries                          : BT.709
Transfer characteristics                 : BT.709
Matrix coefficients                      : BT.709

Audio
ID                                       : 2
Format                                   : AAC LC
Format/Info                              : Advanced Audio Codec Low Complexity
Codec ID                                 : A_AAC-2
Duration                                 : 2 min 45 s
Bit rate                                 : 258 kb/s
Channel(s)                               : 2 channels
Channel layout                           : L R
Sampling rate                            : 48.0 kHz
Frame rate                               : 46.875 FPS (1024 SPF)
Compression mode                         : Lossy
Stream size                              : 5.07 MiB (3%)
Language                                 : Japanese
Default                                  : Yes
Forced                                   : No


